<svg width="262" height="69" viewBox="0 0 262 69" fill="none" xmlns="http://www.w3.org/2000/svg">
<path d="M27.7321 9.34365C27.7321 8.98812 22.6834 10.1543 22.2426 10.3249C16.9401 12.2733 13.073 16.8933 12.0884 22.4559C11.4788 26.4276 12.3712 30.484 14.5914 33.8331C16.8811 37.4027 20.3795 39.5218 23.9065 41.6834C25.4993 42.6505 27.1206 43.5322 28.7703 44.3713C30.8934 45.3237 32.7458 46.79 34.1602 48.6378C35.7236 51 35.8709 54.0278 34.5442 56.5307C33.1474 58.9976 30.5522 60.5439 27.7179 60.5981L27.7179 68.7186C31.5419 68.7043 35.2346 67.3221 38.128 64.8218C43.8166 59.9154 45.4237 50.4439 40.9723 44.2291C38.7008 41.3116 35.8546 38.8915 32.6101 37.1183C29.3391 35.17 25.798 33.7194 22.911 31.1879C21.6803 30.1725 20.7589 28.8324 20.2516 27.3197C19.6217 24.896 20.2343 22.3178 21.887 20.4364C22.6127 19.5642 23.5077 18.8481 24.518 18.3317C24.7598 18.2179 27.7463 17.2793 27.7463 17.5637L27.7321 9.34365Z" fill="#0091F2"/>
<rect y="9.27246" width="6.997" height="24.8735" fill="#0143AE"/>
<path d="M42.7359 9.28687V28.1873H54.6393V34.1461H35.7104V9.28687H42.7359Z" fill="#0143AE"/>
<path d="M77.621 34.1461H57.7251V9.28687H77.1233V15.1746H64.6652V18.73H76.4122V24.447H64.6652V28.2157H77.621V34.1461Z" fill="#0143AE"/>
<path d="M96.9197 16.17C95.2219 14.9645 93.1687 14.3636 91.0888 14.4634C89.3823 14.4634 87.7183 15.0038 87.7183 16.3122C87.7183 18.0188 89.3823 18.2748 91.8426 18.5166C96.7775 19.0428 101.926 21.0338 101.926 26.7651C101.926 32.4963 96.5926 34.8287 91.0177 34.8571C86.5379 34.8571 83.3523 34.1176 79.8965 30.4911L83.779 26.054C85.7168 27.9552 88.347 28.9827 91.0604 28.8983C93.3643 28.8983 94.9713 28.0877 94.9713 26.6939C94.9713 25.3002 93.5492 24.6745 90.8044 24.4185C85.3718 23.9207 80.6787 22.5413 80.6787 16.3549C80.6787 11.0929 85.8269 8.8317 91.0888 8.8317C94.4402 8.65889 97.7434 9.68764 100.404 11.7329L96.9197 16.17Z" fill="#0143AE"/>
<path d="M132.985 25.9402V24.0203H135.503V19.0427H123.244C122.49 19.1055 121.744 18.8564 121.18 18.3537C120.615 17.8511 120.282 17.1388 120.257 16.3833C120.257 13.3257 126.614 13.1123 126.685 16.3833H133.085C133.085 10.6947 128.463 8.74634 123.457 8.74634C119.048 8.74634 113.118 10.4529 113.118 16.4544C113.091 18.4665 114.13 20.3431 115.848 21.3893C113.81 22.4822 112.461 24.5314 112.265 26.8361C112.265 32.8376 117.029 34.4731 121.779 34.4731C124.635 34.6511 127.425 33.5702 129.416 31.515C130.582 34.4731 133.384 34.6153 135.631 34.1887V28.045C134.984 28.2353 134.285 28.0997 133.756 27.6812C133.227 27.2627 132.935 26.6135 132.971 25.9402M126.643 25.798C126.643 27.789 124.68 28.8983 122.618 28.8983C120.84 28.8983 119.176 28.2156 119.176 26.509C119.176 24.518 121.238 24.134 122.831 24.134H126.643V25.798Z" fill="#0143AE"/>
<path d="M86.8935 68.6332H80.0388L69.6997 43.6602H77.4789L80.3232 51.1265L83.4519 60.3278L86.6091 51.1265L89.4534 43.6602H97.2326L86.8935 68.6332Z" fill="#0143AE"/>
<path d="M54.4118 43.6602H61.2808L71.6056 68.6332H63.8265L60.9822 61.1811L57.8676 51.9798L54.6962 61.1811L51.8662 68.6332H44.0728L54.4118 43.6602Z" fill="#0143AE"/>
<path d="M105.538 43.6602H112.393L122.732 68.6332H114.952L112.108 61.1811L108.979 51.9798L105.822 61.1811L102.978 68.6332H95.1987L105.538 43.6602Z" fill="#0143AE"/>
<path d="M190.626 43.6602H197.48L207.82 68.6332H200.04L197.196 61.1811L194.067 51.9798L190.91 61.1811L188.066 68.6332H180.287L190.626 43.6602Z" fill="#0143AE"/>
<path d="M142.216 57.2702C142.031 54.2836 142.031 53.1459 142.002 52.1931V43.6602H149.113V68.5336H143.14L132.772 55.1369L132.872 60.5696V68.5336H125.761V43.6602H131.72L142.216 57.2702Z" fill="#0143AE"/>
<path d="M170.53 57.2702C170.346 54.2836 170.346 53.1459 170.317 52.1931V43.6602H177.428V68.5336H171.455L161.087 55.1369L161.187 60.5696V68.5336H154.076V43.6602H160.035L170.53 57.2702Z" fill="#0143AE"/>
<path d="M255.077 14.4065L256.67 13.5959C256.67 13.3684 256.67 13.1408 256.67 12.9133L247.455 11.676C248.194 9.07345 245.336 9.32944 244.084 7.8504L248.137 7.55175C248.137 7.23887 248.223 6.94022 248.28 6.64157C246.436 5.97875 244.53 5.50232 242.591 5.21942C239.696 5.14157 236.799 5.24131 233.916 5.51807C232.494 5.6034 231.64 5.2052 231.384 3.49861L233.404 2.92975L235.366 2.31822C234.334 0.375855 232.019 -0.495586 229.962 0.284545C226.781 1.21833 223.451 1.54163 220.149 1.23739C217.963 1.0668 215.766 1.06679 213.579 1.23739C211.872 1.33694 210.166 1.62137 209.739 3.37062C204.833 3.37062 200.111 3.37062 195.39 3.37062C194.33 3.37117 193.277 3.52444 192.261 3.82571C190.818 4.16677 189.747 5.38058 189.587 6.85489L192.517 7.26732C192.517 7.69396 192.517 7.55175 192.517 7.97839L187.596 8.43348C184.887 8.57167 182.186 8.84697 179.504 9.25833C177.584 9.65654 176.66 11.164 177.3 13.8234C174.783 14.4208 172.465 14.9327 170.189 15.5158C168.895 15.8287 166.79 15.5158 166.918 17.3931C167.046 19.2703 169.108 18.929 170.53 19.0143C172.223 19.1139 173.716 19.313 174.498 21.2044C174.94 21.747 175.622 22.0348 176.319 21.9724C177.064 21.7683 177.745 21.3766 178.295 20.8347C181.026 18.5308 184.24 18.0757 187.639 18.1184C191.038 18.161 194.053 18.545 196.499 21.4746C199.258 24.8025 202.5 27.7037 205.501 30.8324C206.002 31.3374 206.39 31.9434 206.639 32.6101V32.7239C209.218 40.1075 210.545 47.8704 210.564 55.6916L210.564 68.491H217.675V59.5172C217.675 57.0745 219.655 55.0943 222.098 55.0943C224.54 55.0943 226.521 57.0745 226.521 59.5172V68.5621H233.631V58.8346C233.635 55.9467 232.491 53.1758 230.45 51.1325C228.409 49.0891 225.64 47.9409 222.752 47.9409H217.646C217.645 47.464 217.602 46.9882 217.518 46.5188C217.137 43.9756 216.2 41.5477 214.774 39.408C213.252 37.2179 213.707 35.7673 215.599 34.4447C215.906 34.2297 216.224 34.0303 216.551 33.8474C219.007 32.6513 221.179 30.9446 222.923 28.8414C225.049 25.46 228.901 23.5671 232.878 23.9492C238.837 24.2194 243.828 21.7306 248.664 18.6588C249.47 18.1872 250.414 18.0065 251.337 18.1468C252.918 18.4974 254.468 18.973 255.973 19.569C258.42 20.4222 259.529 18.1468 261.378 17.5353C261.378 17.3219 261.378 17.1086 261.491 16.8811L255.006 14.3639M216.494 8.16327L219.538 8.46193C219.538 9.61387 219.154 10.908 219.637 11.4484C220.121 11.9889 221.557 12.3444 222.923 12.8706C221.5 13.283 220.476 13.6101 219.438 13.8661C218.4 14.1221 217.291 14.3496 215.869 14.6767C216.096 12.3302 216.295 10.2965 216.494 8.14905M214.532 9.67076C214.304 11.2209 214.077 12.8279 213.835 14.435C210.178 14.0916 207.008 11.763 205.587 8.3766L214.532 9.67076ZM213.209 20.536L211.218 24.8025C210.891 23.039 210.664 21.8444 210.436 20.536H213.209ZM187.027 14.0937L186.672 13.2404L188.89 11.0076C189.587 12.4297 189.957 13.1124 190.441 14.0937L187.027 14.0937ZM193.271 13.3399C191.777 13.5675 191.223 13.2119 190.81 11.7898C195.077 10.9223 199.869 12.9702 203.61 8.94546C204.107 9.72764 204.619 10.5525 205.032 11.292C203.354 12.1453 201.86 12.9417 200.325 13.667C200.069 13.795 199.67 13.5959 199.343 13.5817C197.302 13.3104 195.239 13.2437 193.185 13.3826M206.397 29.5809C204.705 27.5188 203.382 25.798 201.932 24.1767C200.895 23.0783 199.793 22.043 198.632 21.0764C197.978 20.5218 197.21 20.0809 196.527 19.6543L196.911 19.0854C197.957 19.9001 199.087 20.6009 200.282 21.176C201.594 21.646 202.985 21.8585 204.378 21.8017C205.857 21.5984 207.314 21.2556 208.729 20.7778C210.152 24.0914 208.189 26.3953 206.397 29.652M215.798 31.643C214.17 32.0213 212.764 33.0421 211.901 34.4731C211.497 35.3353 211.302 36.2805 211.332 37.2321C211.076 36.8623 210.834 36.5068 210.621 36.1513C207.777 31.6146 208.203 29.0405 211.787 25.3144C212.778 24.1512 213.699 22.9308 214.546 21.6595L214.916 21.8586C215.698 21.2471 216.452 20.5929 217.262 20.024C217.68 19.6945 218.166 19.4614 218.685 19.3414C219.964 19.1565 221.273 19.0996 222.951 18.9574C221.529 22.4559 220.32 25.67 218.798 28.7134C218.18 29.9921 217.119 31.0029 215.812 31.5577M234.84 22.5697C233.143 22.6384 231.443 22.6147 229.749 22.4986C227.074 22.1209 224.462 23.5189 223.292 25.9544C222.975 26.4637 222.609 26.9401 222.197 27.3766L221.657 27.1206C222.51 24.5038 223.378 21.8871 224.302 19.0712C227.761 20.6744 231.715 20.8381 235.295 19.5263C236.106 19.2419 237.272 18.7014 237.4 18.1041C237.528 17.5068 236.675 16.5682 236.092 15.914C235.514 15.3113 234.886 14.7593 234.214 14.2643C235.722 13.2972 239.562 12.8422 239.903 13.795C240.201 15.1385 240.307 16.5176 240.216 17.8908H246.388C243.141 20.596 239.127 22.2128 234.911 22.5128" fill="#F78F1F"/>
<path d="M101.499 36.6348V39.8631L99.2237 41.143C97.8316 41.9205 96.136 41.9205 94.7439 41.143L92.2552 39.7208C91.7253 39.4427 91.0926 39.4427 90.5628 39.7208L87.9602 41.0577C86.6584 41.712 85.1237 41.712 83.8218 41.0577L81.333 39.8631V36.777L85.059 38.6258C85.5691 38.882 86.1702 38.882 86.6803 38.6258L89.2828 37.289C90.6181 36.586 92.214 36.586 93.5493 37.289L96.0523 38.7111C96.6002 39.0176 97.2679 39.0176 97.8158 38.7111L101.499 36.6348Z" fill="#0143AE"/>
</svg>
